# xmcd
#
# Track frame offsets: 
#        150
#        15669
#        31907
#        49020
#        66279
#        78446
#        94416
#        106211
#        122811
#        133987
#        148266
#        165035
#
# Disc length: 2372 seconds
#
# Revision: 0
# Processed by: cddbd v1.5.2PL0 Copyright (c) Steve Scherf et al.
# Submitted via: ExactAudioCopy v1.2
#
DISCID=a009420c
DTITLE=Dick van Altena - Singer and Songs
DYEAR=2017
DGENRE=Country
TTITLE0=Rust On My strings
TTITLE1=Singer and Songs
TTITLE2=You Tonight
TTITLE3=Near
TTITLE4=Younger Than Love
TTITLE5=If I Could Change The World With A Song
TTITLE6=I Will Fly
TTITLE7=House On The Hill
TTITLE8=Home Again
TTITLE9=Morning Rains On Me
TTITLE10=Can’t Stop Thinking About You
TTITLE11=The Nickel song
EXTD=
EXTT0=
EXTT1=
EXTT2=
EXTT3=
EXTT4=
EXTT5=
EXTT6=
EXTT7=
EXTT8=
EXTT9=
EXTT10=
EXTT11=
PLAYORDER=
